<?xml version="1.0" standalone="no"?>
<!DOCTYPE svg PUBLIC "-//W3C//DTD SVG 20010904//EN"
 "http://www.w3.org/TR/2001/REC-SVG-20010904/DTD/svg10.dtd">
<svg version="1.0" xmlns="http://www.w3.org/2000/svg"
 width="260.000000pt" height="260.000000pt" viewBox="0 0 260.000000 260.000000"
 preserveAspectRatio="xMidYMid meet">
<metadata>
Created by potrace 1.14, written by Peter Selinger 2001-2017
</metadata>
<g transform="translate(0.000000,260.000000) scale(0.100000,-0.100000)"
fill="#000000" stroke="none">
<path d="M0 1300 l0 -1300 1300 0 1300 0 0 1300 0 1300 -1300 0 -1300 0 0
-1300z m2590 0 l0 -1290 -1290 0 -1290 0 0 1290 0 1290 1290 0 1290 0 0 -1290z"/>
<path d="M835 2341 c-87 -23 -154 -74 -181 -138 -19 -45 -17 -120 5 -169 26
-58 77 -95 197 -144 134 -55 159 -86 109 -135 -39 -40 -134 -31 -210 21 -20
14 -41 24 -45 22 -4 -2 -28 -28 -53 -58 -43 -51 -45 -56 -30 -73 9 -9 46 -32
82 -50 62 -30 72 -32 176 -32 105 0 113 2 165 31 95 54 139 156 110 258 -19
68 -70 110 -196 162 -119 49 -144 66 -144 99 0 62 101 78 192 31 28 -15 52
-25 52 -24 1 2 21 26 44 54 l41 51 -22 21 c-60 56 -213 95 -292 73z"/>
<path d="M1783 2332 l-22 -3 -3 -281 -3 -280 -25 -20 c-36 -30 -97 -19 -132
22 l-26 32 -56 -42 c-31 -23 -56 -48 -56 -55 0 -17 65 -82 103 -102 20 -10 64
-18 117 -21 78 -4 89 -2 139 25 43 22 60 39 85 83 l31 55 0 294 0 293 -65 2
c-36 0 -75 0 -87 -2z"/>
<path d="M570 874 c0 -3 50 -113 110 -243 l110 -237 0 -127 0 -127 85 0 85 0
0 128 0 129 110 235 c61 130 110 239 110 242 0 4 -41 5 -92 4 l-91 -3 -57
-152 c-31 -84 -59 -155 -62 -158 -6 -6 -19 27 -90 220 l-34 90 -92 3 c-50 1
-92 0 -92 -4z"/>
</g>
</svg>
