<?xml version="1.0" standalone="no"?>
<!DOCTYPE svg PUBLIC "-//W3C//DTD SVG 20010904//EN"
 "http://www.w3.org/TR/2001/REC-SVG-20010904/DTD/svg10.dtd">
<svg version="1.0" xmlns="http://www.w3.org/2000/svg"
 width="81.000000pt" height="81.000000pt" viewBox="0 0 81.000000 81.000000"
 preserveAspectRatio="xMidYMid meet">
<metadata>
Created by potrace 1.14, written by Peter Selinger 2001-2017
</metadata>
<g transform="translate(0.000000,81.000000) scale(0.100000,-0.100000)"
fill="#000000" stroke="none">
<path d="M50 405 l0 -405 56 0 c55 0 56 1 52 25 -3 14 -1 25 3 25 5 0 4 11 -1
24 -5 15 -5 27 3 35 7 7 7 11 1 11 -11 0 -11 60 0 78 4 7 2 12 -4 12 -8 0 -8
6 0 20 8 14 8 20 0 20 -8 0 -8 6 0 20 8 14 8 20 0 20 -7 0 -7 6 1 21 7 14 8
24 1 31 -6 6 -7 19 -2 33 4 12 4 28 0 35 -5 8 -5 21 0 30 5 9 5 22 0 30 -5 8
-5 21 0 30 5 9 5 22 0 30 -5 8 -5 21 0 31 5 9 7 19 4 22 -12 12 -10 73 3 85
11 11 14 10 19 -3 7 -18 59 -75 69 -75 11 0 35 -28 35 -41 0 -7 3 -10 6 -6 3
3 42 -30 85 -75 43 -44 79 -78 79 -74 0 3 22 -16 48 -43 27 -27 53 -46 58 -43
5 4 9 38 9 76 -1 64 -3 71 -32 96 -17 16 -29 31 -26 34 4 3 -2 6 -12 6 -10 0
-15 3 -12 6 4 4 -9 19 -28 34 -19 15 -32 30 -28 34 3 3 -1 6 -11 6 -9 0 -15 3
-13 8 2 4 -15 23 -39 42 -23 19 -43 38 -43 42 -1 12 -50 56 -55 50 -3 -3 -6
-1 -6 5 0 6 -12 22 -26 37 -25 24 -33 26 -110 26 l-84 0 0 -405z"/>
<path d="M640 790 c-8 -14 -8 -20 0 -20 8 0 8 -6 0 -20 -8 -14 -8 -20 0 -20 8
0 8 -6 0 -20 -8 -14 -8 -20 0 -20 8 0 8 -6 0 -20 -8 -14 -8 -20 0 -20 8 0 8
-6 0 -20 -8 -14 -8 -20 0 -20 8 0 8 -6 0 -20 -8 -14 -8 -20 0 -20 8 0 8 -6 0
-20 -8 -14 -8 -20 0 -20 8 0 8 -6 0 -20 -8 -14 -8 -20 0 -20 8 0 8 -6 0 -20
-8 -14 -8 -20 0 -20 8 0 8 -6 0 -20 -8 -14 -8 -20 0 -20 8 0 8 -6 0 -20 -8
-14 -8 -20 0 -20 8 0 8 -6 0 -20 -8 -15 -8 -20 2 -20 10 0 10 -2 1 -8 -8 -5
-9 -13 -3 -22 5 -8 5 -21 -1 -32 -7 -12 -6 -18 1 -18 8 0 8 -6 0 -20 -8 -14
-8 -20 0 -20 7 0 8 -6 1 -17 -5 -10 -5 -26 -1 -39 6 -15 5 -21 -3 -20 -17 3
-106 93 -99 100 3 3 1 6 -5 6 -5 0 -38 27 -73 60 -35 33 -67 60 -72 60 -5 0
-6 5 -3 10 3 6 -4 10 -17 10 -14 0 -19 3 -11 8 8 5 3 14 -17 27 -17 11 -30 26
-30 33 0 6 -6 12 -13 12 -8 0 -22 9 -32 20 -32 36 -41 25 -39 -54 l1 -73 108
-109 c60 -60 113 -108 117 -107 4 2 10 -6 13 -17 4 -11 9 -20 13 -20 6 0 26
-18 86 -80 17 -17 33 -20 103 -20 l83 0 0 405 0 405 -50 0 c-39 0 -52 -4 -60
-20z"/>
</g>
</svg>
